# AST/ASF file generated using VICON BodyLanguage
# -----------------------------------------------
:version 1.10
:name VICON
:units
  mass 1.0
  length 0.45
  angle deg
:documentation
   .ast/.asf automatically generated from VICON data using
   VICON BodyBuilder and BodyLanguage model FoxedUp or BRILLIANT.MOD
:root
   order TX TY TZ RX RY RZ
   axis XYZ
   position 0 0 0  
   orientation 0 0 0 
:bonedata
  begin
     id 1 
     name lhipjoint
     direction 0.645422 -0.672597 0.361999 
     length 2.39934 
     axis 0 0 0  XYZ
  end
  begin
     id 2 
     name lfemur
     direction 0.34202 -0.939693 0  
     length 6.58112  
     axis 0 0 20  XYZ
    dof rx ry rz
    limits (-160.0 20.0)
           (-70.0 70.0)
           (-60.0 70.0)
  end
  begin
     id 3 
     name ltibia
     direction 0.34202 -0.939693 0   
     length 7.02673   
     axis 0 0 20   XYZ
    dof rx
    limits (-10.0 170.0)
  end
  begin
     id 4 
     name lfoot
     direction 0.0835106 -0.229444 0.969733   
     length 2.08772   
     axis -90 7.62852e-016 20   XYZ
    dof rx rz
    limits (-45.0 90.0)
           (-70.0 20.0)
  end
  begin
     id 5 
     name ltoes
     direction 1.5358e-011 -4.21925e-011 1   
     length 1.04844   
     axis -90 7.62852e-016 20   XYZ
    dof rx
    limits (-90.0 20.0)
  end
  begin
     id 6 
     name rhipjoint
     direction -0.644959 -0.672941 0.362185   
     length 2.39812  
     axis 0 0 0  XYZ 
  end
  begin
     id 7 
     name rfemur
     direction -0.34202 -0.939693 0   
     length 6.67015   
     axis 0 0 -20   XYZ
    dof rx ry rz
    limits (-160.0 20.0)
           (-70.0 70.0)
           (-70.0 60.0)
  end
  begin
     id 8 
     name rtibia
     direction -0.34202 -0.939693 0   
     length 7.35735   
     axis 0 0 -20   XYZ
    dof rx
    limits (-10.0 170.0)
 end
 begin
     id 9 
     name rfoot
     direction -0.0670769 -0.184292 0.98058   
     length 2.25469  
     axis -90 -7.62852e-016 -20   XYZ
    dof rx rz
    limits (-45.0 90.0)
           (-20.0 70.0)
  end
  begin
     id 10 
     name rtoes
     direction -1.53575e-011 -4.21908e-011 1   
     length 1.13399   
     axis -90 -7.62852e-016 -20   XYZ
    dof rx
    limits (-90.0 20.0)
  end
  begin
     id 11 
     name lowerback
     direction -0.0188328 0.993434 -0.112847   
     length 2.27656   
     axis 0 0 0   XYZ
    dof rx ry rz
    limits (-20.0 45.0)
           (-30.0 30.0)
           (-30.0 30.0)
  end
  begin
     id 12 
     name upperback
     direction 0.00983139 0.998968 -0.04435   
     length 2.28631   
     axis 0 0 0   XYZ
    dof rx ry rz
    limits (-20.0 45.0)
           (-30.0 30.0)
           (-30.0 30.0)
  end
  begin
     id 13 
     name thorax
     direction 0.0177718 0.999807 0.00833073   
     length 2.30999   
     axis 0 0 0   XYZ
    dof rx ry rz
    limits (-20.0 45.0)
           (-30.0 30.0)
           (-30.0 30.0)
  end
  begin
     id 14 
     name lowerneck
     direction -0.0835025 0.993181 0.0813558   
     length 1.39447   
     axis 0 0 0   XYZ
    dof rx ry rz
    limits (-20.0 45.0)
           (-30.0 30.0)
           (-30.0 30.0)
  end
  begin
     id 15 
     name upperneck
     direction 0.210059 0.976535 0.0474817   
     length 1.39882   
     axis 0 0 0   XYZ
    dof rx ry rz
    limits (-20.0 45.0)
           (-30.0 30.0)
           (-30.0 30.0)
  end
  begin
     id 16
     name head
     direction 0.0780891 0.996944 -0.00207154  
     length 1.41828  
     axis 0 0 0   XYZ
    dof rx ry rz
    limits (-20.0 45.0)
           (-30.0 30.0)
           (-30.0 30.0)
  end
  begin
     id 17 
     name lclavicle
     direction 0.982414 0.166355 -0.0847829  
     length 3.57922  
     axis 0 0 0   XYZ
    dof ry rz
    limits (-20.0 10.0)
           (0.0 20.0)
  end
  begin
     id 18 
     name lhumerus
     direction 1 -4.48975e-011 5.47647e-028   
     length 4.76405   
     axis -180 -30 -90   XYZ
    dof rx ry rz
    limits (-60.0 90.0)
           (-90.0 90.0)
           (-90.0 90.0)
  end
  begin
     id 19
     name lradius
     direction 1 -4.48949e-011 -8.32142e-027   
     length 3.13759   
     axis -180 -30 -90   XYZ
    dof rx
    limits (-10.0 170.0)
  end
  begin
     id 20
     name lwrist
     direction 1 -4.48978e-011 -1.32705e-026   
     length 1.56879   
     axis 9.60836e-015 90 90   XYZ
    dof ry
    limits (-180.0 0.0)
 end
  begin
     id 21 
     name lhand
     direction 1 -4.48975e-011 -2.65409e-026   
     length 0.732262   
     axis 1.69354e-014 90 90   XYZ
    dof rx rz
    limits (-90.0 90.0)
           (-45.0 45.0)
  end
  begin
     id 22 
     name lfingers
     direction 1 -4.48923e-011 -5.30819e-026   
     length 0.590368   
     axis 3.38708e-014 90 90   XYZ
    dof rx
    limits (0.0 90.0)
  end
  begin
     id 23
     name lthumb
     direction 0.707107 -6.34914e-011 0.707107   
     length 0.847654   
     axis -90 45 2.85299e-015   XYZ
    dof rx rz
    limits (-45.0 45.0)
           (-45.0 45.0)
  end
  begin
     id 24 
     name rclavicle
     direction -0.963658 0.245183 -0.106063   
     length 3.43472  
     axis 0 0 0   XYZ 
    dof ry rz
    limits (-10.0 20.0)
           (-20.0 0.0)
  end
  begin
     id 25 
     name rhumerus
     direction -1 -4.48963e-011 -1.64784e-027  
     length 5.10161   
     axis -180 30 90   XYZ
    dof rx ry rz
    limits (-90.0 60.0)
           (-90.0 90.0)
           (-90.0 90.0)
  end
  begin
     id 26 
     name rradius
     direction -1 -4.48969e-011 -2.87943e-027   
     length 3.23267   
     axis -180 30 90   XYZ
    dof rx
    limits (-10.0 170.0)
  end
  begin
     id 27 
     name rwrist
     direction -1 -4.48982e-011 -1.32705e-026   
     length 1.61633   
     axis 9.60836e-015 -90 -90   XYZ
    dof ry
    limits (-180.0 0.0)
  end
  begin
     id 28
     name rhand
     direction -1 -4.48963e-011 -2.65409e-026   
     length 0.702   
     axis 1.69354e-014 -90 -90   XYZ
    dof rx rz
    limits (-90.0 90.0)
           (-45.0 45.0)
  end
  begin
     id 29
     name rfingers
     direction -1 -4.48934e-011 -5.30819e-026   
     length 0.565971   
     axis 3.38708e-014 -90 -90   XYZ
    dof rx
    limits (0.0 90.0)
  end
  begin
     id 30
     name rthumb
     direction -0.707107 -6.34908e-011 0.707107   
     length 0.812624   
     axis -90 -45 -2.85299e-015   XYZ
    dof rx rz
    limits (-45.0 45.0)
           (-45.0 45.0)
  end
:hierarchy
  begin
    root lhipjoint rhipjoint lowerback
    lhipjoint lfemur
    lfemur ltibia
    ltibia lfoot
    lfoot ltoes
    rhipjoint rfemur
    rfemur rtibia
    rtibia rfoot
    rfoot rtoes
    lowerback upperback
    upperback thorax
    thorax lowerneck lclavicle rclavicle
    lowerneck upperneck
    upperneck head
    lclavicle lhumerus
    lhumerus lradius
    lradius lwrist
    lwrist lhand lthumb
    lhand lfingers
    rclavicle rhumerus
    rhumerus rradius
    rradius rwrist
    rwrist rhand rthumb
    rhand rfingers
  end

#!OML:ASF \\sashay\E\basketball\basketball\Project 1\Capture day 1\Session 1\Subject.ASF
:FULLY-SPECIFIED
:DEGREES
131
root 7.72865 14.9732 8.29668 3.72972 52.5206 -8.33863
lowerback 18.2738 -2.29963 2.87362
upperback 9.48746 -2.08269 3.63174
thorax -0.010145 -0.87768 2.58496
lowerneck -7.87316 6.32807 -7.42228
upperneck -12.5917 9.32869 0.885747
head -3.16498 5.10463 1.48456
rclavicle -7.45443e-015 4.45278e-014
rhumerus -31.3126 -5.39265 -87.0556
rradius 123.612
rwrist -34.214
rhand -32.9802 38.8917
rfingers 7.12502
rthumb -6.19505 9.00224
lclavicle -7.45443e-015 4.45278e-014
lhumerus -82.5056 -0.312583 93.0803
lradius 25.4755
lwrist 13.5114
lhand -16.2343 30.3096
lfingers 7.12502
lthumb 9.97408 60.0533
rfemur -9.08715 -12.4939 15.5364
rtibia 46.0673
rfoot -20.345 -8.11074
rtoes -50.84
lfemur -39.2148 14.8302 -27.0317
ltibia 85.0331
lfoot -5.72298 -8.55167
ltoes -14.003
132
root 8.07454 15.0445 8.57953 3.25043 53.4205 -9.08295
lowerback 17.9938 -2.12084 2.67405
upperback 9.4403 -1.89308 3.6894
thorax 0.085647 -0.791176 2.71571
lowerneck -8.14502 5.87552 -7.82354
upperneck -12.2895 8.84069 1.82338
head -3.06571 4.85284 1.88827
rclavicle -1.3895e-013 6.97734e-014
rhumerus -32.0156 -6.44281 -86.8951
rradius 123.086
rwrist -38.204
rhand -32.7899 38.464
rfingers 7.12502
rthumb -6.01138 8.56928
lclavicle -1.3895e-013 6.97734e-014
lhumerus -82.57 1.47251 94.3836
lradius 24.7978
lwrist 12.923
lhand -15.0738 30.2685
lfingers 7.12502
lthumb 11.0936 59.9553
rfemur -6.09151 -12.6284 15.5031
rtibia 43.588
rfoot -18.2213 -5.64087
rtoes -51.1989
lfemur -40.7373 14.999 -28.2219
ltibia 82.6436
lfoot -6.27525 -8.6517
ltoes -12.1906
133
root 8.43177 15.12 8.86324 2.89105 54.3356 -9.6705
lowerback 17.6562 -1.94978 2.57331
upperback 9.43933 -1.7067 3.5601
thorax 0.24992 -0.697671 2.59197
lowerneck -8.2122 5.63058 -7.80951
upperneck -12.1186 8.57752 2.54676
head -3.01958 4.70412 2.13797
rclavicle -1.97791e-014 6.50523e-014
rhumerus -32.8193 -7.56806 -86.7027
rradius 122.617
rwrist -42.2091
rhand -31.8893 37.2413
rfingers 7.12502
rthumb -5.14186 7.32364
lclavicle -1.97791e-014 6.50523e-014
lhumerus -82.3956 2.93197 95.6297
lradius 24.3169
lwrist 12.3627
lhand -12.7987 29.6221
lfingers 7.12502
lthumb 13.2872 59.1785
rfemur -3.37262 -12.887 15.3584
rtibia 40.9722
rfoot -15.4541 -3.11816
rtoes -52.2037
lfemur -42.0428 15.1088 -29.5209
ltibia 80.0035
lfoot -6.74187 -8.64934
ltoes -11.1458
134
root 8.79369 15.1909 9.14659 2.64734 55.197 -10.1533
lowerback 17.3178 -1.76302 2.43134
upperback 9.3949 -1.50697 3.38026
thorax 0.367723 -0.599082 2.43825
lowerneck -8.46299 5.40375 -7.41026
upperneck -11.6846 8.2994 3.06648
head -2.8141 4.53248 2.26116
rclavicle -7.9489e-014 2.00151e-014
rhumerus -33.6155 -8.69819 -86.5116
rradius 122.091
rwrist -45.5522
rhand -30.9595 35.5889
rfingers 7.12502
rthumb -4.24402 5.65141
lclavicle -7.9489e-014 2.00151e-014
lhumerus -82.0311 4.36623 96.6029
lradius 23.8902
lwrist 11.6278
lhand -12.0738 28.7831
lfingers 7.12502
lthumb 13.9859 58.2926
rfemur -0.711628 -13.146 15.1161
rtibia 38.2385
rfoot -12.4087 0.537425
rtoes -51.8275
lfemur -43.1905 15.1729 -30.8956
ltibia 77.1551
lfoot -7.22432 -8.46197
ltoes -11.2486
135
root 9.15288 15.2464 9.43096 2.38463 56.0161 -10.7226
lowerback 16.9002 -1.57788 2.2511
upperback 9.32917 -1.31689 3.24705
thorax 0.507353 -0.508764 2.35749
lowerneck -8.79031 5.14269 -7.12341
upperneck -11.0774 7.98118 3.70035
head -2.54718 4.34369 2.44602
rclavicle 1.4387e-014 -2.91716e-014
rhumerus -34.1206 -9.78636 -86.3359
rradius 121.282
rwrist -48.0251
rhand -30.8032 33.9197
rfingers 7.12502
rthumb -4.09311 3.9793
lclavicle 1.4387e-014 -2.91716e-014
lhumerus -81.4196 6.09805 96.9151
lradius 23.3171
lwrist 10.285
lhand -10.5414 27.7579
lfingers 7.12502
lthumb 15.4623 57.1595
rfemur 2.19604 -12.832 14.9561
rtibia 35.3213
rfoot -8.90513 3.23432
rtoes -52.2707
lfemur -44.3716 15.1565 -32.1838
ltibia 74.2004
lfoot -7.76829 -8.0818
ltoes -10.9144
